<?xml version="1.0" encoding="utf-8"?>
<!-- Generator: Adobe Illustrator 25.2.1, SVG Export Plug-In . SVG Version: 6.00 Build 0)  -->
<svg version="1.1" id="Layer_2" xmlns="http://www.w3.org/2000/svg" xmlns:xlink="http://www.w3.org/1999/xlink" x="0px" y="0px"
	 viewBox="0 0 800 600" style="enable-background:new 0 0 800 600;" xml:space="preserve">
<style type="text/css">
	.st0{fill:#D1F2FF;stroke:#FFC715;stroke-miterlimit:10;}
	.st1{fill:#D14475;stroke:#000000;stroke-miterlimit:10;}
	.st2{fill:#901432;stroke:#000000;stroke-miterlimit:10;}
	.st3{fill:#FCF6D9;stroke:#000000;stroke-miterlimit:10;}
	.st4{fill:#FDC4C8;stroke:#000000;stroke-miterlimit:10;}
	.st5{fill:#FF74A3;stroke:#000000;stroke-miterlimit:10;}
	.st6{fill:#C69448;stroke:#000000;stroke-miterlimit:10;}
	.st7{fill:none;stroke:#000000;stroke-miterlimit:10;}
	.st8{fill:#883900;stroke:#8C6239;stroke-miterlimit:10;}
	.st9{fill:#FFAACD;stroke:#000000;stroke-miterlimit:10;}
	.st10{fill:#BF002B;stroke:#000000;stroke-miterlimit:10;}
	.st11{fill:#4F6400;stroke:#000000;stroke-miterlimit:10;}
	.st12{fill:#FEFFD1;stroke:#FFFFFF;stroke-miterlimit:10;}
	.st13{fill:#FBFFDA;stroke:#000000;stroke-miterlimit:10;}
	.st14{fill:#883900;stroke:#000000;stroke-miterlimit:10;}
	.st15{fill:#99582B;stroke:#8C6239;stroke-miterlimit:10;}
	.st16{fill:none;stroke:#8C6239;stroke-miterlimit:10;}
	.st17{fill:#FFFFFF;stroke:#FFFFFF;stroke-miterlimit:10;}
	.st18{fill:#D1F2FF;stroke:#FF151B;stroke-miterlimit:10;}
	.st19{fill:#D1F2FF;stroke:#2AA8FF;stroke-miterlimit:10;}
	.st20{fill:#D1F2FF;stroke:#55E900;stroke-miterlimit:10;}
</style>
<polygon class="st0" points="800.5,598.5 0.5,598.5 -0.5,-1.5 800.5,-1.5 "/>
<path class="st1" d="M361.5,351.5c1.46,1.1,20.43,14.9,41,7c2.68-1.03,12.63-5.21,19-16c5.51-9.33,10.11-26.47,0-39
	c-9.77-12.1-26.19-11.14-28-11c3.5-1.36,9.47-4.21,15-10c2.49-2.6,7.99-8.51,10-18c0.49-2.33,2.78-13.13-3-23
	c-2.46-4.19-5.91-7.43-9.91-9.82c-9.29-5.54-21.52-6.51-31.09-4.18c-8.92,2.17-15.02,7.09-18.12,10l-1.51,12.36
	c-3.13,0.82-5.63,0.81-7.36,0.64c-2.55-0.24-3.2-0.81-6-1c-2.92-0.19-5.24-0.35-7,1c-2.91,2.23-2.34,7.08-2.25,7.73
	c0.26,1.19,0.83,2.89,2.25,4.27c2.67,2.61,7.01,2.81,10,2c3.13-0.85,3.99-2.42,6-2c1.95,0.4,3.22,2.35,4,4c-2.37,1.12-3.92,3.45-4,6
	c-0.1,3.46,2.57,5.51,2.81,5.7c0.01,2.68,0.01,5.36,0.02,8.04c-0.61,1.01-1.78,3.23-1.84,6.27c-0.08,3.92,1.72,6.69,2.39,7.61
	l0.63,7.92c0.1,1.19-0.95,2.16-2.14,1.96c-0.86-0.15-1.82-0.31-2.88-0.49c-3.86-0.65-5.79-0.98-6-1c-1.02-0.08-8.92-0.74-12,4
	c-0.5,0.77-1.49,2.64-1.12,5.84c0.21,1.02,0.72,2.75,2.12,4.16c3.12,3.17,8.99,3.15,13,2c3.53-1.02,5.3-2.83,8-2
	c1.37,0.42,2.32,1.32,2.89,1.98l0.57,3.72c0.19,1.2-0.24,2.39-1.04,3.31c-1.44,1.65-2,3.9-1.42,5.98c0.47,1.71,1.67,3.13,3.24,3.95
	c1.07,0.56,1.88,1.5,2.14,2.68L361.5,351.5z"/>
<path class="st2" d="M414.5,350.5c15.47,6.85,28.2,6.68,35,6c2.47-0.25,27.75-2.79,30-14c0.84-4.16-1.69-8.59-4-11
	c-1.89-1.97-4.77-3.77-14-5c-15.07-2.01-21.17,1.01-25-3c-1.39-1.46-2.74-4.11-2.21-9.39c0.15-1.51,0.77-2.95,1.75-4.11
	c1.53-1.82,3.16-3.73,5.46-4.49c4.35-1.18,6.54-1.17,9-1c4.04,0.28,8.09,1.44,14,0c1.22-0.3,10.92-2.67,12-9
	c0.84-4.94-3.98-9.83-8-12c-4.38-2.36-8.98-1.94-18-1c-11.89,1.24-15.55,3.39-18,1c-2.74-2.67-2.13-9.22,1-13
	c4.35-5.26,14.23-6,19-5c0.33,0.07,3.22,0,9,0c0.2,0,1,0,1,0c3.65,0,3.8,0.01,4,0c2.29-0.1,4.17-2.11,5-3
	c3.08-3.29,3.08-7.52,3.01-8.89c0-0.05-0.01-0.09-0.01-0.11c-0.11-1.73-0.77-6.49-9-13c-1.81-1.43-3.66-2.69-5.52-3.8
	c-13.03-7.77-26.54-8.16-29.48-8.2c-5.09-0.07-13.3,0.45-23,4c2.37,1.91,7.29,6.43,10,14c1.9,5.3,1.95,9.97,1.76,12.8
	c-0.45,3.86-1.83,10.98-6.76,18.2c-7.35,10.77-17.77,14.67-21.37,15.83c11.11-2.31,22.38,1.13,29.37,9.17
	c6.9,7.93,7.01,17.33,6.95,19.95c0.09,3.07-0.16,8.73-2.95,15.05C421.46,344.37,416.93,348.55,414.5,350.5z"/>
<path class="st3" d="M474.62,349.1c13.23-2.22,25.09-4.49,35.88-6.6c0,0,8.6-1.68,20.43-8.53c1.06-0.62,3.22-1.91,4.57-4.47
	c1.51-2.85,1.87-6.98,0-10c-1.02-1.64-2.65-2.79-6-5c-3.2-2.11-5.68-3.36-9-5c-5.04-2.49-9.83-4.34-14.14-5.73
	c-0.58-0.19-1.16-0.32-1.75-0.47c-4.97-1.25-8.57-4.76-9.11-8.8c-0.46-3.45,1.42-6.22,2-7c0.49-0.66,1.48-1.79,6-4
	c5.91-2.89,5.49-2.72,10-4c4.12-1.17,7.97-1.71,10-2c3.2-0.45,4.01-0.39,6-1c2.49-0.76,5.13-1.57,7-4c1.89-2.45,1.96-5.22,2-7
	c0.04-1.63,0.05-6.04-3.44-9.36c-0.67-0.63-1.43-1.14-2.24-1.59c-5.63-3.17-12.07-6.29-19.32-9.04c-21.29-8.08-40.7-9.62-54.53-9.39
	c2.4,1.12,6.79,3.58,10.53,8.39c2.98,3.83,4.36,7.61,5.02,10c0.09,2.31-0.47,3.93-1.02,5c-1.61,3.12-4.51,4.38-6.43,5.21
	c-5.63,2.42-11.09,1.36-13.52,0.72c-9.3-1.86-17.68,0.5-21.06,6.07c-0.71,1.17-1.47,2.93-1.64,5.45c-0.23,1.21-0.38,3.08,0.64,4.55
	c1.85,2.67,6.42,2.43,13,2c2.56-0.17,6.18-0.54,10.51-1.45c1.24-0.29,8.06-1.78,14.49,2.45c4.56,3,6.41,7.22,7.02,8.83
	c-0.38,1.61-1.19,3.95-3.02,6.17c-4.81,5.82-12.45,5.71-13.6,5.67c-11.44-2.97-21.31-0.52-24.4,5.33c-0.63,1.19-1.29,3.12-1,6
	c-0.27,0.86-0.6,2.41,0,4c0.22,0.59,1.07,2.49,5,4c4.3,1.65,7.04,0.81,13,1c2.13,0.07,5.23,0.29,9,1c2.04-0.04,6.52,0.18,11,3
	c2.27,1.43,3.85,3.09,4.87,4.39c0.46,0.59,2.62,3.52,2.13,7.61C478.92,346.32,475.13,348.78,474.62,349.1z"/>
<path class="st4" d="M532.15,333.22c2.85,0.96,23.34,7.53,41.35-3.72c1.52-0.95,12.82-8.21,18-21c1.41-3.47,1.86-6.11,2-7
	c1.36-8.67-1.53-15.6-3-19c-4.54-10.5-12.32-16.32-16-19c-17.56-12.8-38.11-11.37-44.75-10.63c1.14,0.45,4.49,1.93,6.75,5.63
	c1.77,2.9,1.98,5.71,2,7c-0.11,1.68-0.54,3-1,4c-3.44,7.44-14.18,8.11-15.07,8.15c-1.26,0.14-24.93,3.08-26.93,13.85
	c-0.17,0.9-0.19,1.9,0,3c0.01,0.02,0.99,1.98,1,2c0.99,1.99,0.99,1.99,1,2c1.47,2.88,11.49,6.46,13,7c1.95,0.7,4.88,1.79,8.48,3.27
	c3.82,1.03,6.67,2.55,8.52,3.73c2.65,1.69,5.97,3.85,8,8c0.7,1.43,1.06,2.72,1.26,3.65c0.17,0.8,0.4,2.46-0.26,4.35
	C535.41,331.61,532.73,332.95,532.15,333.22z"/>
<path class="st5" d="M377.78,250.46c6.21-3.83,16.94,1.29,15.72,10.53c-0.95,7.23-10.93,11.98-15.72,10.53
	C371.27,269.54,372.03,254.01,377.78,250.46z"/>
<path class="st5" d="M381.5,312.5c5.83-4.39,18.25,0.05,20,7c2.01,7.98-10.28,18.42-17,16C377.85,333.11,374.87,317.49,381.5,312.5z
	"/>
<g id="Layer_3">
	<path class="st6" d="M120.5,307.5l168,31c0.08,7.38,4.97,12.75,10,13c4.3,0.21,7.47-3.38,8-4c3.97,2.36,12.04,6.43,23,7
		c8.73,0.45,15.69-1.5,19.78-3c2.13,2.62,5.37,3.8,8.22,3c2.28-0.64,3.56-2.35,4-3c-0.69-3.14-1.38-6.29-2.07-9.43
		c-2.39-0.53-4.3-2.29-4.93-4.57c-0.74-2.66,0.38-5.58,2.79-7.18c-0.3-1.95-0.6-3.89-0.9-5.84c-0.83-0.79-2.15-1.77-3.89-1.98
		c-2.35-0.29-3.67,1.04-6,2c-3.87,1.6-9.57,1.81-13-1c-0.79-0.64-2.54-2.34-3.24-5.98c-0.39-3.38,0.55-5.13,1.24-6.02
		c3.06-3.91,10.8-2.92,18-2c2.15,0.27,3.93,0.62,5.21,0.89c-0.27-3.43-0.55-6.85-0.82-10.28c-0.66-0.92-2.84-4.19-2.39-8.61
		c0.25-2.43,1.19-4.25,1.84-5.27c-0.05-2.46-0.11-4.92-0.16-7.39c-2.22-1.81-3.27-4.66-2.68-7.35c0.73-3.33,3.62-4.81,4-5
		c-1.17-1.26-2.35-2.53-3.52-3.79c-8.81,2.99-16.32,1.72-18.48-2.21c-0.44-0.8-0.94-2.22-0.51-4.53c0.3-1.68,0.97-2.78,1.51-3.47
		c2.56-3.21,7.94-4.05,13.51-2.16c0.84,0.18,2.05,0.33,3.49,0.16c2.08-0.25,3.62-1.06,4.46-1.59c0.47-3.8,0.94-7.61,1.41-11.41
		c-0.57-3.16-2.99-5.58-5.88-6c-3.53-0.52-7.19,2.03-8,6c-4.08-0.54-11.9-1.03-21,2c-3.9,1.3-11.15,4.29-18,11
		c-2.53-3.58-7-5.18-11-4c-4.55,1.34-7.6,6-7,11c-26.29,7.97-52.58,15.93-78.86,23.9C177.92,290.1,149.21,298.8,120.5,307.5z"/>
	<path class="st6" d="M288.5,338.5c-3.22-10.24-6.55-24.61-7-42c-0.41-15.78,1.69-29.12,4-39c-0.89-4.63,1.65-9.27,6-11
		c4.4-1.75,9.5-0.06,12,4c-3.69,10-8.35,26.4-8,47c0.38,22.47,6.56,39.93,11,50c-0.29,0.28-4.63,4.33-10,3
		C291.68,349.31,288.12,344.29,288.5,338.5z"/>
	<path class="st7" d="M294.5,286.5"/>
	<path class="st6" d="M342.5,237.5"/>
	<path class="st6" d="M342.5,236.5c-0.47,2.33-0.86,5.01-1,8c-0.08,1.78-0.07,3.45,0,5"/>
	<path class="st6" d="M341.5,264.5c-0.69,6.2-1.13,13.25-1,21c0.14,8.59,0.94,16.32,2,23"/>
	<path class="st6" d="M344.5,325.5c0.59,3.91,1.26,7.92,2,12c0.87,4.81,1.81,9.48,2.78,14"/>
	<line class="st8" x1="164.74" y1="313.5" x2="179.5" y2="295.5"/>
	<line class="st8" x1="177.5" y1="314.62" x2="195.5" y2="290.5"/>
	<line class="st8" x1="191.5" y1="317.5" x2="212.5" y2="284.5"/>
	<line class="st8" x1="206.02" y1="320.74" x2="227.5" y2="281.5"/>
	<path class="st8" d="M221.26,321.6c6.08-14.7,12.16-29.4,18.24-44.1"/>
	<path class="st8" d="M235.04,325.5c7.15-18.67,14.3-37.33,21.46-56"/>
	<line class="st8" x1="248.5" y1="326.5" x2="269.43" y2="268.5"/>
	<path class="st8" d="M261.22,328.91c5.76-17.8,11.52-35.61,17.28-53.41"/>
	<path class="st8" d="M270.5,331.5c2.67-8.67,5.33-17.33,8-26"/>
	<path class="st8" d="M279.5,332.5c1-3,2-6,3-9"/>
</g>
<path class="st9" d="M556.5,284.5c7-4,17,4,16.27,12.34c-0.51,5.78-11.27,16.66-19.7,9.09C547.06,300.52,549.98,288.23,556.5,284.5z
	"/>
<path class="st1" d="M348.5,360.5"/>
<path class="st10" d="M544.5,252.5c-2.28-1.67-5.26-4.25-8-8c-1.85-2.53-3.12-4.97-4-7c-1.7-8.94,0.74-17.26,6-21
	c3.61-2.57,7.82-2.97,7.82-2.97c3.25-0.31,5.83,0.46,7.18,0.97c1.33,0.67,2.67,1.33,4,2c1.04,3.39,2.46,3.01,3,2
	c0.91-1.71,2.64-2.55,4-3c1.33-0.33,2.67-0.67,4-1c1.39,0.1,4.76,0.52,8,3c3.35,2.57,4.58,5.83,5,7c0.68,1.9,0.84,3.51,1,5
	c0.26,2.45,0.15,4.53,0,6c-1,2.67-2,5.33-3,8c-1.46,2.16-4.58,6.14-10,9c-7.28,3.84-14.17,3.27-16.72,2.93"/>
<path class="st11" d="M559.5,218.5c0.02,0.01,0.08-0.22,1-3c0.41-1.24,0.25-0.74,2-6c3.53-10.6,3.41-10.3,4-12
	c2.55-7.41,2.36-6.01,4-11c2.22-6.75,2.56-9.3,5-14c1.24-2.39,2.4-4.13,3-5c0.99-1.44,2.91-4.17,6-7c1.04-0.96,2.33-2.01,5-4
	c1.74-1.3,3.14-2.35,4-3c-1-1-2-2-3-3c-0.28,1.01-0.84,2.52-2,4c-1.42,1.81-2.58,2.1-5,4c-2.47,1.94-4.02,3.81-5,5
	c-1.12,1.36-2.49,3.22-4,6c-3.26,6.01-4.65,11.62-5,13C565.53,198.4,559.28,218.44,559.5,218.5z"/>
<path class="st12" d="M537.5,234.5c-0.13,1.43-1.7,1.36,0-5c0.79-2.97,4.88-6.15,5-6c0.1,0.13-1.6,1.45-3,4
	C537.47,231.2,537.52,234.29,537.5,234.5z"/>
<path class="st13" d="M627.5,199.5"/>
<path class="st12" d="M547.5,219.5c-0.55,0.36-1.1,0.39-3,2"/>
<path class="st14" d="M156.5,342.5"/>
<path class="st15" d="M155.5,300.5c4.33,4.67,8.67,9.33,13,14"/>
<path class="st8" d="M164.5,298.5c6,5.67,12,11.33,18,17"/>
<path class="st8" d="M173.5,295.5c7.67,7.67,15.33,15.33,23,23"/>
<path class="st8" d="M183.5,292.5c9.67,9.67,19.33,19.33,29,29"/>
<path class="st8" d="M192.55,289.09c11.32,11.14,22.63,22.28,33.95,33.41"/>
<path class="st8" d="M204.5,285.5c12.33,13.33,24.67,26.67,37,40"/>
<path class="st8" d="M216.5,283.5c13.67,14.67,27.33,29.33,41,44"/>
<path class="st8" d="M228.5,279.5c15.33,17,30.67,34,46,51"/>
<line class="st8" x1="241" y1="275.13" x2="281.45" y2="321.6"/>
<line class="st8" x1="253.5" y1="272.5" x2="280.15" y2="303"/>
<line class="st8" x1="265.5" y1="268.5" x2="280.15" y2="283.5"/>
<line class="st8" x1="277.6" y1="264.5" x2="281.45" y2="269.17"/>
<line class="st8" x1="143.47" y1="308.5" x2="152.66" y2="300"/>
<line class="st8" x1="151.47" y1="311.55" x2="164.74" y2="298.36"/>
<line class="st15" x1="147.04" y1="300.5" x2="155.5" y2="310.19"/>
<line class="st15" x1="140.74" y1="304.5" x2="145.5" y2="310.5"/>
<path class="st16" d="M288.51,259.39c-0.88,3.38-1.67,7.49-2.05,12.2c-0.4,4.99-0.22,9.4,0.16,13.03"/>
<path class="st17" d="M361.5,242.5c-0.04-0.32,2.63-2.06,4.3-3.5c1.15-1,2.56-1.65,4.07-1.9c3.69-0.61,4.55-0.63,4.64-0.6
	c0.11,0.04-2.68-3.07-7-1C360.03,239.09,361.51,242.55,361.5,242.5z"/>
<path class="st17" d="M378.4,234.5c0.58-0.25,0.28-0.45,0.1,0c-0.19,0.46,4.38-3.11,4.5,0"/>
<path class="st17" d="M384.5,236.5"/>
<path class="st17" d="M416.5,234.5c-0.19-0.44,4.76-2.74,10.88-3c7.49-0.32,13.8,2.54,13.61,3c-0.15,0.38-4.64-1.03-12.25-1
	C421.26,233.53,416.68,234.91,416.5,234.5z"/>
<path class="st17" d="M469.96,250.18c0.21-0.06,2.29,3,1.54,6.32c-0.74,3.27-3.85,5.14-4,5c-0.14-0.12,2.23-1.83,3-5
	C471.34,253.08,469.76,250.24,469.96,250.18z"/>
<path class="st17" d="M412.5,263.5c0.17,0.06-0.51,6.4-5,12c-4.96,6.19-11.92,8.14-12,8c-0.07-0.13,6.03-2.08,11-8
	C411.38,269.69,412.33,263.44,412.5,263.5z"/>
<path class="st17" d="M334.5,255.5c0.05-0.2,0.13-0.47,0.27-0.78c0,0,0.28-0.65,0.73-1.22c0.97-1.22,4.01-1.95,4-2
	c-0.01-0.03-1.55-0.06-3,1C335.04,253.57,334.61,255.07,334.5,255.5z"/>
<path class="st17" d="M332.5,316.5c-0.18-0.04-0.35-2.28,1-4c1.46-1.86,3.94-2.14,4-2c0.05,0.12-1.59,0.47-3,2
	C332.79,314.35,332.68,316.54,332.5,316.5z"/>
<path class="st17" d="M333.5,319.5c1,1,1,1,1,1"/>
<path class="st17" d="M484.02,242.99c0.01-0.13,13.65-1.16,28.35,5.34c6.35,2.81,12.32,6.77,12.12,7.17c-0.18,0.36-5.51-1.89-8-3
	c-4.19-1.87-5.68-2.88-9.76-4.43c-2.12-0.81-3.72-1.39-4.79-1.62C491.37,244.21,484.01,243.3,484.02,242.99z"/>
<path class="st17" d="M540.06,257.16c0-0.23,4.12-0.33,8.52,0.26c5.2,0.69,9.53,2.17,9.38,2.4c-0.11,0.17-2.52-0.37-10.47-1.52
	C541.96,257.51,540.06,257.32,540.06,257.16z"/>
<path class="st16" d="M344.19,274c-0.17,4.25-0.2,8.91,0,13.93c0.22,5.69,0.7,10.9,1.31,15.57"/>
<line class="st0" x1="361.39" y1="270.28" x2="365.68" y2="274"/>
<line class="st0" x1="430.69" y1="250.17" x2="433.34" y2="253.49"/>
<line class="st0" x1="489.77" y1="259.86" x2="489.77" y2="266.96"/>
<line class="st0" x1="534.45" y1="295.98" x2="538.51" y2="298.5"/>
<line class="st0" x1="555.5" y1="267.5" x2="554.11" y2="272.14"/>
<line class="st0" x1="374.5" y1="343.55" x2="378.89" y2="343.55"/>
<line class="st0" x1="408.5" y1="305.5" x2="408.5" y2="310.47"/>
<line class="st0" x1="491.81" y1="325.5" x2="493.6" y2="320.5"/>
<line class="st0" x1="574.79" y1="316.5" x2="574.79" y2="323.3"/>
<line class="st0" x1="460.4" y1="295.98" x2="460.4" y2="293.09"/>
<line class="st0" x1="397.85" y1="236.5" x2="401.72" y2="241.17"/>
<line class="st0" x1="435.4" y1="349.1" x2="439.5" y2="345.5"/>
<line class="st18" x1="530.11" y1="264.5" x2="531.13" y2="267.5"/>
<line class="st18" x1="363.53" y1="294.53" x2="366.96" y2="298.5"/>
<line class="st18" x1="383.39" y1="240.15" x2="384.5" y2="243"/>
<line class="st18" x1="412.52" y1="330.79" x2="410.5" y2="334.5"/>
<line class="st18" x1="453.51" y1="240.15" x2="457.09" y2="242.5"/>
<line class="st18" x1="427.48" y1="290.96" x2="428.75" y2="295.98"/>
<line class="st18" x1="455.3" y1="318.02" x2="457.09" y2="313.49"/>
<line class="st18" x1="475.72" y1="240.15" x2="477.5" y2="244.5"/>
<line class="st18" x1="509.68" y1="288.75" x2="513.51" y2="294.21"/>
<line class="st18" x1="586.5" y1="289.5" x2="584.49" y2="292.59"/>
<line class="st19" x1="484.02" y1="286.5" x2="486.19" y2="289.5"/>
<line class="st19" x1="457.09" y1="251.83" x2="455.3" y2="255.5"/>
<line class="st19" x1="400" y1="259.86" x2="406.28" y2="258.42"/>
<line class="st19" x1="380.7" y1="289.5" x2="383.94" y2="293.09"/>
<line class="st19" x1="395.5" y1="349.1" x2="397.85" y2="345.5"/>
<line class="st19" x1="460.4" y1="337.68" x2="461.5" y2="341.5"/>
<line class="st19" x1="522.45" y1="323.3" x2="518.5" y2="327.5"/>
<line class="st19" x1="539.61" y1="278.96" x2="542.5" y2="282.28"/>
<line class="st19" x1="554.8" y1="323.3" x2="557.95" y2="318.02"/>
<line class="st20" x1="508.4" y1="253.67" x2="509.68" y2="256.98"/>
<line class="st20" x1="363.53" y1="250.17" x2="361.39" y2="253.67"/>
<line class="st20" x1="382.32" y1="276.4" x2="386.87" y2="278.96"/>
<line class="st20" x1="362.46" y1="318.02" x2="361.39" y2="323"/>
<line class="st20" x1="416.5" y1="318.02" x2="420.06" y2="319.5"/>
<line class="st20" x1="444.83" y1="242.85" x2="443.5" y2="247.5"/>
<line class="st20" x1="442.02" y1="290.96" x2="444.16" y2="298.29"/>
<line class="st20" x1="441" y1="332.64" x2="434.36" y2="332.64"/>
<line class="st20" x1="460.95" y1="270.28" x2="465.77" y2="274"/>
<line class="st20" x1="486.19" y1="313.49" x2="482.5" y2="314.5"/>
<line class="st20" x1="505.34" y1="332.64" x2="508.4" y2="335.85"/>
<line class="st20" x1="570.19" y1="269.82" x2="571.21" y2="274"/>
<line class="st20" x1="544.5" y1="308.52" x2="546" y2="313.99"/>
<line class="st20" x1="584.49" y1="300" x2="586.5" y2="305.5"/>
</svg>
